<svg xmlns="http://www.w3.org/2000/svg" xmlns:xlink="http://www.w3.org/1999/xlink" viewBox="0 0 1200 1000" preserveAspectRatio="none">
<style type="text/css">.st2{fill:none;stroke:#000000;stroke-linejoin:bevel;stroke-width:1;}</style>
<g>
  <polygon class="st2" points="51.1,238.8 0,241.5 2.6,193.9"/>
  <polygon class="st2" points="3,286.1 0,241.5 51.1,238.8"/>
  <polygon class="st2" points="47.3,188.8 2.4,194.1 48.1,143"/>
  <polygon class="st2" points="51.1,238.8 2.4,194.1 47.3,188.8"/>
  <polygon class="st2" points="106.3,346.9 2.5,392.8 35.4,360.6"/>
  <polygon class="st2" points="118.9,410.5 2.5,392.8 106.1,346.7"/>
  <polygon class="st2" points="2.5,493.8 118.9,410.5 115.4,460.2"/>
  <polygon class="st2" points="2.5,392.8 118.9,410.5 6.2,433.9"/>
  <polygon class="st2" points="120,509.8 115.4,460.2 217.9,498.6"/>
  <polygon class="st2" points="310.2,469.8 217.9,498.6 388.6,512.9"/>
  <polygon class="st2" points="2.5,493.8 115.4,460.2 120,509.8"/>
  <polygon class="st2" points="115.4,460.2 168.9,454.2 217.9,498.6"/>
  <polygon class="st2" points="118.9,410.5 168.9,454.2 115.4,460.2"/>
  <polygon class="st2" points="3,286.1 77.9,287.9 50,325.7"/>
  <polygon class="st2" points="51.1,238.8 77.9,287.9 3,286.1"/>
  <polygon class="st2" points="22.5,327.1 50.1,325.6 35.4,360.6"/>
  <polygon class="st2" points="3,286.1 50,325.7 22.5,327.1"/>
  <polygon class="st2" points="3,286.1 22.5,327.1 2.5,392.8"/>
  <polygon class="st2" points="50.2,325.3 106.1,346.7 35.4,360.6"/>
  <polygon class="st2" points="77.9,287.9 106.1,346.7 50.1,325.5"/>
  <polygon class="st2" points="138.5,282.3 77.9,287.9 116.5,229.5"/>
  <polygon class="st2" points="106.1,346.7 77.9,287.9 138.5,282.3"/>
  <polygon class="st2" points="149.1,193.4 116.5,229.5 47.3,188.8"/>
  <polygon class="st2" points="138.5,282.3 116.5,229.5 149.1,193.4"/>
  <polygon class="st2" points="116.5,229.5 51.1,238.8 47.3,188.8"/>
  <polygon class="st2" points="77.9,287.9 51.1,238.8 116.5,229.5"/>
  <polygon class="st2" points="73.7,99.2 115.5,136.7 79.4,150"/>
  <polygon class="st2" points="129.7,80.3 115.5,136.7 73.7,99.2"/>
  <polygon class="st2" points="48.1,143 79.7,150 47.3,188.8"/>
  <polygon class="st2" points="73.7,99.2 79.7,150 48.1,143"/>
  <polygon class="st2" points="79.5,149.8 149.1,193.4 47.3,188.8"/>
  <polygon class="st2" points="115.5,136.7 149.1,193.4 79.4,150"/>
  <polygon class="st2" points="185.4,175 115.5,136.7 177.9,117.3"/>
  <polygon class="st2" points="149.1,193.4 115.5,136.7 185.4,175"/>
  <polygon class="st2" points="207.3,131.2 177.9,117.3 170.9,39"/>
  <polygon class="st2" points="185.4,175 177.9,117.3 207.3,131.2"/>
  <polygon class="st2" points="177.9,117.3 129.7,80.3 170.9,39"/>
  <polygon class="st2" points="115.5,136.7 129.7,80.3 177.9,117.3"/>
  <polygon class="st2" points="129.7,80.3 50.8,58.6 122.9,27.4"/>
  <polygon class="st2" points="73.7,99.2 50.8,58.6 129.7,80.3"/>
  <polygon class="st2" points="170.9,39 122.8,27.4 166,1.2"/>
  <polygon class="st2" points="166,1.2 122.9,27.4 63.9,5.5"/>
  <polygon class="st2" points="230.9,5.5 166,1.2 170.9,39"/>
  <polygon class="st2" points="129.7,80.3 123,27.3 170.9,39"/>
  <polygon class="st2" points="50.8,58.6 63.9,5.5 122.8,27.5"/>
  <polygon class="st2" points="5.4,6.4 50.8,58.6 6.5,113.6"/>
  <polygon class="st2" points="63.9,5.5 50.8,58.6 5.4,6.4"/>
  <polygon class="st2" points="2.5,392.8 22.5,327.1 35.4,360.6"/>
  <polygon class="st2" points="6.2,433.9 118.9,410.5 2.5,493.8"/>
  <polygon class="st2" points="6.6,113.5 73.7,99.2 48.1,143"/>
  <polygon class="st2" points="6.6,113.5 48.1,143 2.4,194.1"/>
  <polygon class="st2" points="50.8,58.6 73.7,99.2 6.6,113.5"/>
  <polygon class="st2" points="232.6,369.7 181.5,372.4 197.9,326.7"/>
  <polygon class="st2" points="208,402.8 181.5,372.4 232.6,369.7"/>
  <polygon class="st2" points="228.8,319.7 197.7,326.9 202.6,288.6"/>
  <polygon class="st2" points="232.6,369.7 197.7,326.8 228.8,319.7"/>
  <polygon class="st2" points="197.8,326.9 138.5,282.3 202.6,288.6"/>
  <polygon class="st2" points="181.5,372.4 138.5,282.3 197.9,326.7"/>
  <polygon class="st2" points="106.1,346.7 181.5,372.4 150,403.1"/>
  <polygon class="st2" points="138.5,282.3 181.5,372.4 106.1,346.7"/>
  <polygon class="st2" points="118.9,410.5 150,403.1 168.9,454.2"/>
  <polygon class="st2" points="106.1,346.7 150,403.1 118.9,410.5"/>
  <polygon class="st2" points="150,403.1 208,402.8 168.9,454.2"/>
  <polygon class="st2" points="181.5,372.4 208,402.8 150,403.1"/>
  <polygon class="st2" points="208,402.8 259.5,418.9 231.6,456.6"/>
  <polygon class="st2" points="232.6,369.7 259.5,418.9 208,402.8"/>
  <polygon class="st2" points="168.9,454.2 231.6,456.5 217.9,498.6"/>
  <polygon class="st2" points="208,402.8 231.6,456.7 168.9,454.2"/>
  <polygon class="st2" points="231.7,456.2 310.2,469.8 217.9,498.6"/>
  <polygon class="st2" points="259.5,418.9 310.2,469.8 231.6,456.4"/>
  <polygon class="st2" points="320.1,413.2 259.5,418.9 298,360.4"/>
  <polygon class="st2" points="310.2,469.8 259.5,418.9 320.1,413.2"/>
  <polygon class="st2" points="330.7,324.3 298,360.5 228.8,319.7"/>
  <polygon class="st2" points="320.1,413.2 298,360.5 330.7,324.3"/>
  <polygon class="st2" points="298,360.5 232.6,369.7 228.8,319.7"/>
  <polygon class="st2" points="259.5,418.9 232.6,369.7 298,360.5"/>
  <polygon class="st2" points="255.2,230.1 297.1,267.6 260.9,280.9"/>
  <polygon class="st2" points="311.2,211.3 297.1,267.6 255.2,230.1"/>
  <polygon class="st2" points="202.6,288.6 261.2,280.9 228.8,319.7"/>
  <polygon class="st2" points="255.2,230.1 261.2,280.9 202.6,288.6"/>
  <polygon class="st2" points="261.1,280.8 330.7,324.3 228.8,319.7"/>
  <polygon class="st2" points="297.1,267.6 330.7,324.3 260.9,280.9"/>
  <polygon class="st2" points="366.9,305.9 297.1,267.6 359.4,248.2"/>
  <polygon class="st2" points="330.7,324.3 297.1,267.6 366.9,305.9"/>
  <polygon class="st2" points="388.8,262.1 359.4,248.2 343.8,172.7"/>
  <polygon class="st2" points="366.9,305.9 359.4,248.2 388.8,262.1"/>
  <polygon class="st2" points="359.4,248.2 311.2,211.3 343.8,172.7"/>
  <polygon class="st2" points="297.1,267.6 311.2,211.3 359.4,248.2"/>
  <polygon class="st2" points="311.2,211.3 232.3,189.6 269.9,143.5"/>
  <polygon class="st2" points="255.2,230.1 232.3,189.6 311.2,211.3"/>
  <polygon class="st2" points="311.2,211.3 269.9,143.5 343.8,172.7"/>
  <polygon class="st2" points="269.9,143.5 185.4,175 207.3,131.2"/>
  <polygon class="st2" points="232.3,189.6 185.4,175 269.8,143.5"/>
  <polygon class="st2" points="149.1,193.4 232.3,189.6 188.1,244.5"/>
  <polygon class="st2" points="185.4,175 232.3,189.6 149.1,193.4"/>
  <polygon class="st2" points="138.5,282.3 188.1,244.4 202.6,288.6"/>
  <polygon class="st2" points="149.1,193.4 188.1,244.4 138.5,282.3"/>
  <polygon class="st2" points="188.1,244.4 255.2,230.1 202.6,288.6"/>
  <polygon class="st2" points="232.3,189.6 255.2,230.1 188.1,244.4"/>
  <polygon class="st2" points="536.5,59.9 594.8,60.4 569,105.2"/>
  <polygon class="st2" points="606.6,29 594.8,60.4 536.5,59.9"/>
  <polygon class="st2" points="707.6,35.2 594.8,60.4 606.6,29"/>
  <polygon class="st2" points="537.7,110 569.2,105 559.2,162.4"/>
  <polygon class="st2" points="536.5,59.9 569.2,105 537.7,110"/>
  <polygon class="st2" points="569,104.9 603.8,153.1 559.2,162.4"/>
  <polygon class="st2" points="594.8,60.4 603.8,153.1 569,105.2"/>
  <polygon class="st2" points="536.5,59.9 505,38.1 606.6,29"/>
  <polygon class="st2" points="505,38.1 488.8,4.8 606.6,29"/>
  <polygon class="st2" points="606.6,29 488.8,4.8 638.1,7.5"/>
  <polygon class="st2" points="606.6,29 638.1,7.5 707.6,35.2"/>
  <polygon class="st2" points="707.6,35.2 638.1,7.5 811.4,0"/>
  <polygon class="st2" points="488.8,4.8 505,38.1 470.7,64.8"/>
  <polygon class="st2" points="424.1,82.6 470.7,64.7 537.7,110"/>
  <polygon class="st2" points="488.8,4.8 470.7,64.7 424.1,82.6"/>
  <polygon class="st2" points="470.7,64.7 536.5,59.9 537.7,110"/>
  <polygon class="st2" points="505,38.1 536.5,59.9 470.7,64.7"/>
  <polygon class="st2" points="506.8,197.8 466.9,157.5 503.7,146.6"/>
  <polygon class="st2" points="449.9,212.8 466.9,157.5 506.8,197.8"/>
  <polygon class="st2" points="559.2,162.4 503.4,146.6 537.7,110"/>
  <polygon class="st2" points="506.8,197.8 503.4,146.6 559.2,162.4"/>
  <polygon class="st2" points="503.5,146.8 424.1,82.6 537.7,110"/>
  <polygon class="st2" points="466.9,157.5 424.1,82.6 503.7,146.6"/>
  <polygon class="st2" points="401.6,125.6 466.9,157.5 403.7,172.7"/>
  <polygon class="st2" points="424.1,82.6 466.9,157.5 401.6,125.6"/>
  <polygon class="st2" points="343.8,172.7 403.7,172.7 388.8,262.1"/>
  <polygon class="st2" points="401.6,125.6 403.7,172.7 343.8,172.7"/>
  <polygon class="st2" points="403.7,172.7 449.9,212.8 388.8,262.1"/>
  <polygon class="st2" points="466.9,157.5 449.9,212.8 403.7,172.7"/>
  <polygon class="st2" points="449.9,212.8 492.4,259.5 419.9,290.2"/>
  <polygon class="st2" points="506.8,197.8 492.4,259.5 449.9,212.8"/>
  <polygon class="st2" points="388.8,262.1 420,290.2 366.9,305.9"/>
  <polygon class="st2" points="449.9,212.8 419.9,290.3 388.8,262.1"/>
  <polygon class="st2" points="420.2,290 464.9,346.2 366.9,305.9"/>
  <polygon class="st2" points="492.4,259.5 464.9,346.2 420,290.1"/>
  <polygon class="st2" points="549.9,348.3 492.4,259.5 547.6,262.2"/>
  <polygon class="st2" points="464.9,346.2 492.4,259.5 549.9,348.3"/>
  <polygon class="st2" points="603.8,153.1 547.6,262.3 559.2,162.4"/>
  <polygon class="st2" points="597.8,231.8 547.6,262.3 603.8,153.1"/>
  <polygon class="st2" points="549.9,348.3 547.6,262.3 597.8,231.8"/>
  <polygon class="st2" points="549.9,348.3 597.8,231.8 600,311.6"/>
  <polygon class="st2" points="549.9,348.3 600,311.6 582,399"/>
  <polygon class="st2" points="547.6,262.3 506.8,197.8 559.2,162.4"/>
  <polygon class="st2" points="492.4,259.5 506.8,197.8 547.6,262.3"/>
  <polygon class="st2" points="503.1,380.1 420,375.3 464.9,346.2"/>
  <polygon class="st2" points="431.4,441.7 420,375.3 503.1,380.1"/>
  <polygon class="st2" points="503.1,380.1 464.7,346.3 549.9,348.3"/>
  <polygon class="st2" points="420,375.3 366.9,305.9 464.9,346.2"/>
  <polygon class="st2" points="330.7,324.3 420,375.3 363.9,408"/>
  <polygon class="st2" points="366.9,305.9 420,375.3 330.7,324.3"/>
  <polygon class="st2" points="320.1,413.2 363.9,408 310.2,469.8"/>
  <polygon class="st2" points="330.7,324.3 363.9,408 320.1,413.2"/>
  <polygon class="st2" points="363.9,408 431.4,441.7 310.2,469.8"/>
  <polygon class="st2" points="420,375.3 431.4,441.7 363.9,408"/>
  <polygon class="st2" points="431.4,441.7 497.4,437.3 411.9,477.5"/>
  <polygon class="st2" points="503.1,380.1 497.4,437.3 431.4,441.7"/>
  <polygon class="st2" points="310.2,469.8 412,477.4 388.6,512.9"/>
  <polygon class="st2" points="431.4,441.7 411.8,477.6 310.2,469.8"/>
  <polygon class="st2" points="412.1,477.2 486.6,482.2 388.6,512.9"/>
  <polygon class="st2" points="497.4,437.3 486.6,482.2 412,477.4"/>
  <polygon class="st2" points="586.5,470.6 497.4,437.3 536.1,424.5"/>
  <polygon class="st2" points="486.6,482.2 497.4,437.3 586.5,470.6"/>
  <polygon class="st2" points="582,399 536.1,424.5 549.9,348.3"/>
  <polygon class="st2" points="643.6,511.1 586.5,470.6 582,399"/>
  <polygon class="st2" points="536.1,424.5 503.1,380.1 549.9,348.3"/>
  <polygon class="st2" points="497.4,437.3 503.1,380.1 536.1,424.5"/>
  <polygon class="st2" points="332.2,54.9 292.7,5.5 329.1,3.8"/>
  <polygon class="st2" points="275.3,70 292.7,5.5 332.2,54.9"/>
  <polygon class="st2" points="332.2,54.9 328.9,3.8 383,4.8"/>
  <polygon class="st2" points="170.9,39 230.9,5.5 207.3,131.2"/>
  <polygon class="st2" points="230.9,5.5 275.3,70 207.3,131.2"/>
  <polygon class="st2" points="292.7,5.5 275.3,70 230.9,5.5"/>
  <polygon class="st2" points="275.3,70 353,96.9 269.8,143.5"/>
  <polygon class="st2" points="332.2,54.9 353,96.9 275.3,70"/>
  <polygon class="st2" points="275.3,70 269.8,143.5 207.3,131.2"/>
  <polygon class="st2" points="269.8,143.5 401.6,125.6 343.8,172.7"/>
  <polygon class="st2" points="353,96.9 401.6,125.6 269.9,143.5"/>
  <polygon class="st2" points="424.1,82.6 353,96.9 400,45"/>
  <polygon class="st2" points="401.6,125.6 353,96.9 424.1,82.6"/>
  <polygon class="st2" points="488.8,4.8 400,45.1 383,4.8"/>
  <polygon class="st2" points="424.1,82.6 400,45.1 488.8,4.8"/>
  <polygon class="st2" points="400,45.1 332.2,54.9 383,4.8"/>
  <polygon class="st2" points="353,96.9 332.2,54.9 400,45.1"/>
  <polygon class="st2" points="1148.9,274.2 1198.9,271.5 1193,310.9"/>
  <polygon class="st2" points="1169.9,233.4 1198.9,271.5 1148.9,274.2"/>
  <polygon class="st2" points="1152.7,324.1 1193.2,310.6 1200,349.4"/>
  <polygon class="st2" points="1148.9,274.2 1193.2,310.7 1152.7,324.1"/>
  <polygon class="st2" points="1093.7,166.1 1171.8,122.2 1150.6,158.7"/>
  <polygon class="st2" points="1081.1,102.4 1171.8,122.2 1093.9,166.2"/>
  <polygon class="st2" points="1141.2,40.1 1081.1,102.4 1084.6,52.7"/>
  <polygon class="st2" points="1171.8,122.2 1081.1,102.4 1198.8,74.9"/>
  <polygon class="st2" points="1079.4,0 1084.6,52.7 982.1,14.4"/>
  <polygon class="st2" points="889.8,43.2 982.1,14.4 811.4,0"/>
  <polygon class="st2" points="982.1,14.4 1079.4,0 811.4,0"/>
  <polygon class="st2" points="1141.2,40.1 1084.6,52.7 1079.4,0"/>
  <polygon class="st2" points="1196.9,11.3 1141.2,40.1 1079.4,0"/>
  <polygon class="st2" points="1084.6,52.7 1005.7,49.5 982.1,14.4"/>
  <polygon class="st2" points="1081.1,102.4 1005.7,49.5 1084.6,52.7"/>
  <polygon class="st2" points="1169.9,233.4 1122.1,225 1150.4,196.7"/>
  <polygon class="st2" points="1148.9,274.2 1122.1,225 1169.9,233.4"/>
  <polygon class="st2" points="1194,179.2 1150.3,196.8 1150.6,158.7"/>
  <polygon class="st2" points="1169.9,233.4 1150.4,196.6 1194,179.2"/>
  <polygon class="st2" points="1198.9,271.5 1169.9,233.4 1194,179.2"/>
  <polygon class="st2" points="1150.2,197.1 1093.9,166.2 1150.6,158.7"/>
  <polygon class="st2" points="1122.1,225 1093.9,166.2 1150.3,196.9"/>
  <polygon class="st2" points="1061.5,230.7 1122.1,225 1083.5,283.5"/>
  <polygon class="st2" points="1093.9,166.2 1122.1,225 1061.5,230.7"/>
  <polygon class="st2" points="1034.7,329.9 1083.5,283.4 1152.7,324.1"/>
  <polygon class="st2" points="1061.5,230.7 1083.5,283.4 1034.7,329.9"/>
  <polygon class="st2" points="1083.5,283.4 1148.9,274.2 1152.7,324.1"/>
  <polygon class="st2" points="1122.1,225 1148.9,274.2 1083.5,283.4"/>
  <polygon class="st2" points="1126.3,413.8 1084.5,376.2 1120.6,362.9"/>
  <polygon class="st2" points="1070.3,432.6 1084.5,376.2 1126.3,413.8"/>
  <polygon class="st2" points="1200,349.4 1120.3,363 1152.7,324.1"/>
  <polygon class="st2" points="1126.3,413.8 1120.3,363 1200,349.4"/>
  <polygon class="st2" points="1120.5,363.1 1034.7,329.9 1152.7,324.1"/>
  <polygon class="st2" points="1084.5,376.2 1034.7,329.9 1120.6,362.9"/>
  <polygon class="st2" points="1013.7,361 1084.5,376.2 1022.1,395.7"/>
  <polygon class="st2" points="1034.7,329.9 1084.5,376.2 1013.7,361"/>
  <polygon class="st2" points="980.4,415.4 1022.1,395.7 1029.1,473.9"/>
  <polygon class="st2" points="1013.7,361 1022.1,395.7 980.4,415.4"/>
  <polygon class="st2" points="1022.1,395.7 1070.3,432.6 1029.1,473.9"/>
  <polygon class="st2" points="1084.5,376.2 1070.3,432.6 1022.1,395.7"/>
  <polygon class="st2" points="1070.3,432.6 1149.2,454.3 1078.5,480"/>
  <polygon class="st2" points="1126.3,413.8 1149.2,454.3 1070.3,432.6"/>
  <polygon class="st2" points="1029.1,473.9 1078.5,480 978.4,503.9"/>
  <polygon class="st2" points="1070.3,432.6 1078.5,480 1029.1,473.9"/>
  <polygon class="st2" points="1149.2,454.3 1099.3,505.9 1078.5,480"/>
  <polygon class="st2" points="1195.3,475 1149.2,454.3 1196.1,402.9"/>
  <polygon class="st2" points="1099.3,505.9 1149.2,454.3 1195.3,475"/>
  <polygon class="st2" points="1171.8,122.2 1194,179.2 1150.6,158.7"/>
  <polygon class="st2" points="1198.8,74.9 1194,179.2 1171.8,122.2"/>
  <polygon class="st2" points="1198.8,74.9 1081.1,102.4 1141.2,40.1"/>
  <polygon class="st2" points="1198.8,74.9 1141.2,40.1 1196.9,11.3"/>
  <polygon class="st2" points="1196.1,403 1126.3,413.8 1200,349.4"/>
  <polygon class="st2" points="1149.2,454.3 1126.3,413.8 1196.1,403"/>
  <polygon class="st2" points="967.4,143.2 1018.5,140.6 1002.1,186.3"/>
  <polygon class="st2" points="992,110.2 1018.5,140.6 967.4,143.2"/>
  <polygon class="st2" points="971.2,193.2 1002.3,186.1 997.4,224.3"/>
  <polygon class="st2" points="967.4,143.2 1002.3,186.1 971.2,193.2"/>
  <polygon class="st2" points="1002.2,186.1 1061.5,230.7 997.4,224.3"/>
  <polygon class="st2" points="1018.5,140.6 1061.5,230.7 1002.1,186.3"/>
  <polygon class="st2" points="1093.9,166.2 1018.5,140.6 1050,109.8"/>
  <polygon class="st2" points="1061.5,230.7 1018.5,140.6 1093.9,166.2"/>
  <polygon class="st2" points="1081.1,102.4 1050,109.8 1005.7,49.5"/>
  <polygon class="st2" points="1093.9,166.2 1050,109.8 1081.1,102.4"/>
  <polygon class="st2" points="1050,109.8 992,110.2 1005.7,49.5"/>
  <polygon class="st2" points="1018.5,140.6 992,110.2 1050,109.8"/>
  <polygon class="st2" points="992,110.2 940.5,94.1 968.4,56.4"/>
  <polygon class="st2" points="967.4,143.2 940.5,94.1 992,110.2"/>
  <polygon class="st2" points="1005.7,49.5 968.4,56.5 982.1,14.4"/>
  <polygon class="st2" points="992,110.2 968.4,56.3 1005.7,49.5"/>
  <polygon class="st2" points="968.3,56.8 889.8,43.2 982.1,14.4"/>
  <polygon class="st2" points="940.5,94.1 889.8,43.2 968.4,56.5"/>
  <polygon class="st2" points="879.9,99.7 940.5,94.1 902,152.6"/>
  <polygon class="st2" points="889.8,43.2 940.5,94.1 879.9,99.7"/>
  <polygon class="st2" points="869.3,188.6 902,152.5 971.2,193.2"/>
  <polygon class="st2" points="879.9,99.7 902,152.5 869.3,188.6"/>
  <polygon class="st2" points="902,152.5 967.4,143.2 971.2,193.2"/>
  <polygon class="st2" points="940.5,94.1 967.4,143.2 902,152.5"/>
  <polygon class="st2" points="944.8,282.9 902.9,245.3 939.1,232"/>
  <polygon class="st2" points="888.8,301.7 902.9,245.3 944.8,282.9"/>
  <polygon class="st2" points="997.4,224.3 938.8,232.1 971.2,193.2"/>
  <polygon class="st2" points="944.8,282.9 938.8,232 997.4,224.3"/>
  <polygon class="st2" points="938.9,232.2 869.3,188.6 971.2,193.2"/>
  <polygon class="st2" points="902.9,245.3 869.3,188.6 939.1,232"/>
  <polygon class="st2" points="833.1,207 902.9,245.3 840.6,264.7"/>
  <polygon class="st2" points="869.3,188.6 902.9,245.3 833.1,207"/>
  <polygon class="st2" points="803.8,281.3 840.6,264.7 851.9,349.7"/>
  <polygon class="st2" points="833.1,207 840.6,264.7 803.8,281.3"/>
  <polygon class="st2" points="840.6,264.7 888.8,301.7 851.9,349.7"/>
  <polygon class="st2" points="902.9,245.3 888.8,301.7 840.6,264.7"/>
  <polygon class="st2" points="888.8,301.7 967.7,323.4 914.1,364.7"/>
  <polygon class="st2" points="944.8,282.9 967.7,323.4 888.8,301.7"/>
  <polygon class="st2" points="888.8,301.7 914.1,364.7 851.9,349.7"/>
  <polygon class="st2" points="914.1,364.7 1013.7,361 980.4,415.4"/>
  <polygon class="st2" points="967.7,323.4 1013.7,361 914.2,364.7"/>
  <polygon class="st2" points="1034.7,329.9 967.7,323.4 1011.9,268.5"/>
  <polygon class="st2" points="1013.7,361 967.7,323.4 1034.7,329.9"/>
  <polygon class="st2" points="1061.5,230.7 1011.9,268.5 997.4,224.3"/>
  <polygon class="st2" points="1034.7,329.9 1011.9,268.5 1061.5,230.7"/>
  <polygon class="st2" points="1011.9,268.5 944.8,282.9 997.4,224.3"/>
  <polygon class="st2" points="967.7,323.4 944.8,282.9 1011.9,268.5"/>
  <polygon class="st2" points="663.5,453.1 643.6,511.1 623.1,423"/>
  <polygon class="st2" points="709.9,503.6 643.6,511.1 663.5,453.1"/>
  <polygon class="st2" points="662.3,402.9 622.9,423.2 637.7,370.1"/>
  <polygon class="st2" points="663.5,453.1 622.9,423.2 662.3,402.9"/>
  <polygon class="st2" points="623.1,423.3 582,399 637.7,370.1"/>
  <polygon class="st2" points="748.5,507.1 709.9,503.6 729.3,448.1"/>
  <polygon class="st2" points="763.7,414.3 729.3,448.2 662.3,402.9"/>
  <polygon class="st2" points="748.5,507.1 729.3,448.2 763.7,414.3"/>
  <polygon class="st2" points="729.3,448.2 663.5,453.1 662.3,402.9"/>
  <polygon class="st2" points="709.9,503.6 663.5,453.1 729.3,448.2"/>
  <polygon class="st2" points="693.2,315.2 733.1,355.5 696.3,366.3"/>
  <polygon class="st2" points="750.1,300.2 733.1,355.5 693.2,315.2"/>
  <polygon class="st2" points="637.7,370.1 696.6,366.3 662.3,402.9"/>
  <polygon class="st2" points="693.2,315.2 696.6,366.3 637.7,370.1"/>
  <polygon class="st2" points="696.5,366.2 763.7,414.3 662.3,402.9"/>
  <polygon class="st2" points="733.1,355.5 763.7,414.3 696.3,366.3"/>
  <polygon class="st2" points="800.9,398.3 733.1,355.5 796.3,340.2"/>
  <polygon class="st2" points="763.7,414.3 733.1,355.5 800.9,398.3"/>
  <polygon class="st2" points="851.9,349.7 796.3,340.2 803.8,281.3"/>
  <polygon class="st2" points="800.9,398.3 796.3,340.2 851.9,349.7"/>
  <polygon class="st2" points="796.3,340.2 750.1,300.2 803.8,281.3"/>
  <polygon class="st2" points="733.1,355.5 750.1,300.2 796.3,340.2"/>
  <polygon class="st2" points="750.1,300.2 696.7,247 780.1,222.7"/>
  <polygon class="st2" points="693.2,315.2 696.7,247 750.1,300.2"/>
  <polygon class="st2" points="803.8,281.3 780,222.8 833.1,207"/>
  <polygon class="st2" points="750.1,300.2 780.1,222.7 803.8,281.3"/>
  <polygon class="st2" points="779.8,222.9 735.1,166.7 833.1,207"/>
  <polygon class="st2" points="696.7,247 735.1,166.7 780,222.8"/>
  <polygon class="st2" points="653.7,201.2 696.7,247 637.8,313"/>
  <polygon class="st2" points="735.1,166.7 696.7,247 653.7,201.2"/>
  <polygon class="st2" points="582,399 637.8,312.9 637.7,370.1"/>
  <polygon class="st2" points="600,311.6 637.8,312.9 582,399"/>
  <polygon class="st2" points="653.7,201.2 637.8,312.9 600,311.6"/>
  <polygon class="st2" points="653.7,201.2 600,311.6 597.7,231.8"/>
  <polygon class="st2" points="653.7,201.2 597.7,231.8 603.8,153.1"/>
  <polygon class="st2" points="637.8,312.9 693.2,315.2 637.7,370.1"/>
  <polygon class="st2" points="696.7,247 693.2,315.2 637.8,312.9"/>
  <polygon class="st2" points="696.9,132.8 780,137.6 735.1,166.7"/>
  <polygon class="st2" points="759.8,83.2 780,137.6 696.9,132.8"/>
  <polygon class="st2" points="696.9,132.8 735.3,166.6 653.7,201.2"/>
  <polygon class="st2" points="780,137.6 833.1,207 735.1,166.7"/>
  <polygon class="st2" points="869.3,188.6 780,137.6 836.1,105"/>
  <polygon class="st2" points="833.1,207 780,137.6 869.3,188.6"/>
  <polygon class="st2" points="879.9,99.7 836.1,105 889.8,43.2"/>
  <polygon class="st2" points="869.3,188.6 836.1,105 879.9,99.7"/>
  <polygon class="st2" points="836.1,105 759.8,83.2 889.8,43.2"/>
  <polygon class="st2" points="780,137.6 759.8,83.2 836.1,105"/>
  <polygon class="st2" points="759.8,83.2 702.6,75.7 788.6,43.9"/>
  <polygon class="st2" points="696.9,132.8 702.6,75.7 759.8,83.2"/>
  <polygon class="st2" points="889.8,43.2 788.5,43.9 811.4,0"/>
  <polygon class="st2" points="759.8,83.2 788.6,43.8 889.8,43.2"/>
  <polygon class="st2" points="788.3,44.1 707.6,35.2 811.4,0"/>
  <polygon class="st2" points="702.6,75.7 707.6,35.2 788.4,44"/>
  <polygon class="st2" points="594.8,60.4 702.6,75.7 656.6,117.9"/>
  <polygon class="st2" points="707.6,35.2 702.6,75.7 594.8,60.4"/>
  <polygon class="st2" points="603.8,153.1 656.6,117.8 653.7,201.2"/>
  <polygon class="st2" points="594.8,60.4 656.6,117.8 603.8,153.1"/>
  <polygon class="st2" points="656.6,117.8 696.9,132.8 653.7,201.2"/>
  <polygon class="st2" points="702.6,75.7 696.9,132.8 656.6,117.8"/>
  <polygon class="st2" points="858.9,447.3 921.8,480.1 872.3,484.5"/>
  <polygon class="st2" points="924.7,443 921.8,480.1 858.9,447.3"/>
  <polygon class="st2" points="858.9,447.3 872.3,484.5 835.1,515.9"/>
  <polygon class="st2" points="1029.1,473.9 978.4,503.9 980.2,415.4"/>
  <polygon class="st2" points="978.4,503.9 924.7,443 980.2,415.4"/>
  <polygon class="st2" points="921.8,480.1 924.7,443 978.4,503.9"/>
  <polygon class="st2" points="924.7,443 847,416 914.2,364.7"/>
  <polygon class="st2" points="858.9,447.3 847,416 924.7,443"/>
  <polygon class="st2" points="924.7,443 914.2,364.7 980.2,415.4"/>
  <polygon class="st2" points="914.2,364.7 800.9,398.3 851.9,349.7"/>
  <polygon class="st2" points="847,416 800.9,398.3 914.1,364.7"/>
  <polygon class="st2" points="763.7,414.3 847,416 800,467.9"/>
  <polygon class="st2" points="800.9,398.3 847,416 763.7,414.3"/>
  <polygon class="st2" points="748.5,507.1 800,467.8 835.1,515.9"/>
  <polygon class="st2" points="763.7,414.3 800,467.8 748.5,507.1"/>
  <polygon class="st2" points="800,467.8 858.9,447.3 835.1,515.9"/>
  <polygon class="st2" points="847,416 858.9,447.3 800,467.8"/>
  <polygon class="st2" points="51.1,725.8 5.2,714.2 22,694.8"/>
  <polygon class="st2" points="8.7,761.2 5.2,714.2 51.1,725.8"/>
  <polygon class="st2" points="47.3,675.9 21.7,695 21.1,644.8"/>
  <polygon class="st2" points="21.7,695 5.2,712.8 21.1,644.8"/>
  <polygon class="st2" points="51.1,725.8 21.7,695 47.3,675.9"/>
  <polygon class="st2" points="106.3,833.9 0,880.7 35.4,847.6"/>
  <polygon class="st2" points="118.9,897.6 0,880.7 106.1,833.8"/>
  <polygon class="st2" points="0,997.9 118.9,897.6 115.4,947.3"/>
  <polygon class="st2" points="0,880.7 118.9,897.6 3,926.7"/>
  <polygon class="st2" points="120,996.8 115.4,947.3 217,997.5"/>
  <polygon class="st2" points="310.2,956.8 217,997.5 388.6,1000"/>
  <polygon class="st2" points="0,997.9 115.4,947.3 120,996.8"/>
  <polygon class="st2" points="115.4,947.3 194.3,950.5 217,997.5"/>
  <polygon class="st2" points="118.9,897.6 194.3,950.5 115.4,947.3"/>
  <polygon class="st2" points="8.7,761.2 77.9,775 50,812.7"/>
  <polygon class="st2" points="51.1,725.8 77.9,775 8.7,761.2"/>
  <polygon class="st2" points="1.9,812.8 50.1,812.6 35.4,847.6"/>
  <polygon class="st2" points="8.7,761.2 50,812.8 1.9,812.8"/>
  <polygon class="st2" points="50.2,812.3 106.1,833.8 35.4,847.6"/>
  <polygon class="st2" points="77.9,775 106.1,833.8 50.1,812.5"/>
  <polygon class="st2" points="138.5,769.3 77.9,775 116.5,716.5"/>
  <polygon class="st2" points="106.1,833.8 77.9,775 138.5,769.3"/>
  <polygon class="st2" points="149.1,680.5 116.5,716.6 47.3,675.9"/>
  <polygon class="st2" points="138.5,769.3 116.5,716.6 149.1,680.5"/>
  <polygon class="st2" points="116.5,716.6 51.1,725.8 47.3,675.9"/>
  <polygon class="st2" points="77.9,775 51.1,725.8 116.5,716.6"/>
  <polygon class="st2" points="73.7,586.2 115.5,623.8 79.4,637.1"/>
  <polygon class="st2" points="129.7,567.4 115.5,623.8 73.7,586.2"/>
  <polygon class="st2" points="21.1,644.8 79.7,637 47.3,675.9"/>
  <polygon class="st2" points="73.7,586.2 79.7,637 21.1,644.8"/>
  <polygon class="st2" points="79.5,636.9 149.1,680.5 47.3,675.9"/>
  <polygon class="st2" points="115.5,623.8 149.1,680.5 79.4,637.1"/>
  <polygon class="st2" points="185.4,662 115.5,623.8 177.9,604.3"/>
  <polygon class="st2" points="149.1,680.5 115.5,623.8 185.4,662"/>
  <polygon class="st2" points="207.3,618.2 177.9,604.3 170.4,504.1"/>
  <polygon class="st2" points="185.4,662 177.9,604.3 207.3,618.2"/>
  <polygon class="st2" points="177.9,604.3 129.7,567.4 170.4,504.1"/>
  <polygon class="st2" points="115.5,623.8 129.7,567.4 177.9,604.3"/>
  <polygon class="st2" points="129.7,567.4 50.8,545.7 120,509.8"/>
  <polygon class="st2" points="73.7,586.2 50.8,545.7 129.7,567.4"/>
  <polygon class="st2" points="129.7,567.4 120,509.8 170.4,504.1"/>
  <polygon class="st2" points="50.8,545.7 2.5,493.8 120,509.8"/>
  <polygon class="st2" points="2.4,545.2 50.8,545.7 6.5,600.6"/>
  <polygon class="st2" points="2.5,493.8 50.8,545.7 2.4,545.2"/>
  <polygon class="st2" points="0,880.7 1.9,812.8 35.4,847.6"/>
  <polygon class="st2" points="3,926.7 118.9,897.6 0,997.9"/>
  <polygon class="st2" points="6.6,600.5 73.7,586.2 21.1,644.8"/>
  <polygon class="st2" points="6.6,600.5 21.1,644.8 5.2,714.2"/>
  <polygon class="st2" points="50.8,545.7 73.7,586.2 6.6,600.5"/>
  <polygon class="st2" points="232.6,856.8 181.5,859.4 197.9,813.7"/>
  <polygon class="st2" points="208,889.8 181.5,859.4 232.6,856.8"/>
  <polygon class="st2" points="228.8,806.8 197.7,813.9 202.6,775.7"/>
  <polygon class="st2" points="232.6,856.8 197.7,813.9 228.8,806.8"/>
  <polygon class="st2" points="197.8,813.9 138.5,769.3 202.6,775.7"/>
  <polygon class="st2" points="181.5,859.4 138.5,769.3 197.9,813.7"/>
  <polygon class="st2" points="106.1,833.8 181.5,859.4 150,890.2"/>
  <polygon class="st2" points="138.5,769.3 181.5,859.4 106.1,833.8"/>
  <polygon class="st2" points="118.9,897.6 150,890.2 194.3,950.5"/>
  <polygon class="st2" points="106.1,833.8 150,890.2 118.9,897.6"/>
  <polygon class="st2" points="150,890.2 208,889.8 194.3,950.5"/>
  <polygon class="st2" points="181.5,859.4 208,889.8 150,890.2"/>
  <polygon class="st2" points="208,889.8 259.5,905.9 231.6,943.6"/>
  <polygon class="st2" points="232.6,856.8 259.5,905.9 208,889.8"/>
  <polygon class="st2" points="194.3,950.5 231.6,943.5 217,997.5"/>
  <polygon class="st2" points="208,889.8 231.6,943.7 194.3,950.5"/>
  <polygon class="st2" points="231.7,943.2 310.2,956.8 217,997.5"/>
  <polygon class="st2" points="259.5,905.9 310.2,956.8 231.6,943.5"/>
  <polygon class="st2" points="320.1,900.3 259.5,905.9 298,847.4"/>
  <polygon class="st2" points="310.2,956.8 259.5,905.9 320.1,900.3"/>
  <polygon class="st2" points="330.7,811.4 298,847.5 228.8,806.8"/>
  <polygon class="st2" points="320.1,900.3 298,847.5 330.7,811.4"/>
  <polygon class="st2" points="298,847.5 232.6,856.8 228.8,806.8"/>
  <polygon class="st2" points="259.5,905.9 232.6,856.8 298,847.5"/>
  <polygon class="st2" points="255.2,717.1 297.1,754.7 260.9,768"/>
  <polygon class="st2" points="311.2,698.3 297.1,754.7 255.2,717.1"/>
  <polygon class="st2" points="202.6,775.7 261.2,767.9 228.8,806.8"/>
  <polygon class="st2" points="255.2,717.1 261.2,768 202.6,775.7"/>
  <polygon class="st2" points="261.1,767.8 330.7,811.4 228.8,806.8"/>
  <polygon class="st2" points="297.1,754.7 330.7,811.4 260.9,768"/>
  <polygon class="st2" points="366.9,793 297.1,754.7 359.4,735.3"/>
  <polygon class="st2" points="330.7,811.4 297.1,754.7 366.9,793"/>
  <polygon class="st2" points="388.8,749.2 359.4,735.3 348.1,650.3"/>
  <polygon class="st2" points="366.9,793 359.4,735.3 388.8,749.2"/>
  <polygon class="st2" points="359.4,735.3 311.2,698.3 348.1,650.3"/>
  <polygon class="st2" points="297.1,754.7 311.2,698.3 359.4,735.3"/>
  <polygon class="st2" points="311.2,698.3 232.3,676.6 266,662.7"/>
  <polygon class="st2" points="255.2,717.1 232.3,676.6 311.2,698.3"/>
  <polygon class="st2" points="311.2,698.3 266,662.7 348.1,650.3"/>
  <polygon class="st2" points="266,662.7 185.4,662 207.3,618.2"/>
  <polygon class="st2" points="232.3,676.6 185.4,662 265.9,662.8"/>
  <polygon class="st2" points="149.1,680.5 232.3,676.6 188.1,731.5"/>
  <polygon class="st2" points="185.4,662 232.3,676.6 149.1,680.5"/>
  <polygon class="st2" points="138.5,769.3 188.1,731.5 202.6,775.7"/>
  <polygon class="st2" points="149.1,680.5 188.1,731.5 138.5,769.3"/>
  <polygon class="st2" points="188.1,731.5 255.2,717.1 202.6,775.7"/>
  <polygon class="st2" points="232.3,676.6 255.2,717.1 188.1,731.5"/>
  <polygon class="st2" points="534.5,540.4 586.5,470.6 569,592.2"/>
  <polygon class="st2" points="543.4,489.7 586.5,470.6 534.5,540.4"/>
  <polygon class="st2" points="537.7,597.1 569.2,592 562.3,629.9"/>
  <polygon class="st2" points="534.5,540.4 569.2,592 537.7,597.1"/>
  <polygon class="st2" points="569,592 610.4,610.6 562.3,629.9"/>
  <polygon class="st2" points="586.5,470.6 610.4,610.6 569,592.2"/>
  <polygon class="st2" points="534.5,540.4 486.6,482.2 543.4,489.7"/>
  <polygon class="st2" points="446.9,524.8 486.6,482.2 470.7,551.9"/>
  <polygon class="st2" points="436.3,585.7 470.7,551.8 537.7,597.1"/>
  <polygon class="st2" points="446.9,524.8 470.7,551.8 436.3,585.7"/>
  <polygon class="st2" points="470.7,551.8 534.5,540.4 537.7,597.1"/>
  <polygon class="st2" points="486.6,482.2 534.5,540.4 470.7,551.8"/>
  <polygon class="st2" points="506.8,684.8 466.9,644.5 503.7,633.7"/>
  <polygon class="st2" points="449.9,699.8 466.9,644.5 506.8,684.8"/>
  <polygon class="st2" points="562.3,629.9 503.4,633.7 537.7,597.1"/>
  <polygon class="st2" points="506.8,684.8 503.4,633.7 562.3,629.9"/>
  <polygon class="st2" points="503.5,633.8 436.3,585.7 537.7,597.1"/>
  <polygon class="st2" points="466.9,644.5 436.3,585.7 503.7,633.7"/>
  <polygon class="st2" points="399.1,601.7 466.9,644.5 403.7,659.8"/>
  <polygon class="st2" points="436.3,585.7 466.9,644.5 399.1,601.7"/>
  <polygon class="st2" points="348.1,650.3 403.7,659.8 388.8,749.2"/>
  <polygon class="st2" points="399.1,601.7 403.7,659.8 348.1,650.3"/>
  <polygon class="st2" points="403.7,659.8 449.9,699.8 388.8,749.2"/>
  <polygon class="st2" points="466.9,644.5 449.9,699.8 403.7,659.8"/>
  <polygon class="st2" points="449.9,699.8 503.3,753 419.9,777.3"/>
  <polygon class="st2" points="506.8,684.8 503.3,753 449.9,699.8"/>
  <polygon class="st2" points="388.8,749.2 420,777.2 366.9,793"/>
  <polygon class="st2" points="449.9,699.8 419.9,777.3 388.8,749.2"/>
  <polygon class="st2" points="420.2,777.1 464.9,833.3 366.9,793"/>
  <polygon class="st2" points="503.3,753 464.9,833.3 420,777.2"/>
  <polygon class="st2" points="529.5,829.5 503.3,753 551.5,704.4"/>
  <polygon class="st2" points="464.9,833.3 503.3,753 529.5,829.5"/>
  <polygon class="st2" points="610.4,610.6 551.5,704.5 562.3,629.9"/>
  <polygon class="st2" points="597.8,718.9 551.5,704.5 610.4,610.6"/>
  <polygon class="st2" points="529.5,829.5 551.5,704.5 597.8,718.9"/>
  <polygon class="st2" points="529.5,829.5 597.8,718.9 614.9,769.7"/>
  <polygon class="st2" points="529.5,829.5 614.9,769.7 580.9,875.9"/>
  <polygon class="st2" points="551.5,704.5 506.8,684.8 562.3,629.9"/>
  <polygon class="st2" points="503.3,753 506.8,684.8 551.5,704.5"/>
  <polygon class="st2" points="503.1,867.2 420,862.4 464.9,833.3"/>
  <polygon class="st2" points="440.2,916.8 420,862.4 503.1,867.2"/>
  <polygon class="st2" points="503.1,867.2 464.7,833.4 529.5,829.5"/>
  <polygon class="st2" points="420,862.4 366.9,793 464.9,833.3"/>
  <polygon class="st2" points="330.7,811.4 420,862.4 363.9,895"/>
  <polygon class="st2" points="366.9,793 420,862.4 330.7,811.4"/>
  <polygon class="st2" points="320.1,900.3 363.9,895 310.2,956.8"/>
  <polygon class="st2" points="330.7,811.4 363.9,895 320.1,900.3"/>
  <polygon class="st2" points="363.9,895 440.2,916.8 310.2,956.8"/>
  <polygon class="st2" points="420,862.4 440.2,916.8 363.9,895"/>
  <polygon class="st2" points="440.2,916.8 497.4,924.3 411.4,956.1"/>
  <polygon class="st2" points="503.1,867.2 497.4,924.3 440.2,916.8"/>
  <polygon class="st2" points="310.2,956.8 411.5,956.1 388.6,1000"/>
  <polygon class="st2" points="440.2,916.8 411.4,956.2 310.2,956.8"/>
  <polygon class="st2" points="411.7,955.9 487.5,994.4 388.6,1000"/>
  <polygon class="st2" points="497.4,924.3 487.5,994.4 411.6,956"/>
  <polygon class="st2" points="585.3,997.1 497.4,924.3 536.1,911.5"/>
  <polygon class="st2" points="487.5,994.4 497.4,924.3 585.3,997.1"/>
  <polygon class="st2" points="580.9,875.9 536.1,911.6 529.5,829.5"/>
  <polygon class="st2" points="585.3,997.1 536.1,911.6 580.9,875.9"/>
  <polygon class="st2" points="536.1,911.6 503.1,867.2 529.5,829.5"/>
  <polygon class="st2" points="497.4,924.3 503.1,867.2 536.1,911.6"/>
  <polygon class="st2" points="332.2,542 292.5,504.9 334.4,508.4"/>
  <polygon class="st2" points="275.3,557 292.5,504.9 332.2,542"/>
  <polygon class="st2" points="332.2,542 334.4,508.4 388.6,512.9"/>
  <polygon class="st2" points="170.4,504.1 217.9,498.6 207.3,618.2"/>
  <polygon class="st2" points="217.9,498.6 275.3,557 207.3,618.2"/>
  <polygon class="st2" points="292.5,504.9 275.3,557 217.9,498.6"/>
  <polygon class="st2" points="275.3,557 353,584 265.9,662.7"/>
  <polygon class="st2" points="332.2,542 353,584 275.3,557"/>
  <polygon class="st2" points="275.3,557 265.9,662.7 207.3,618.2"/>
  <polygon class="st2" points="265.9,662.7 399.1,601.7 348.1,650.3"/>
  <polygon class="st2" points="353,584 399.1,601.7 266,662.7"/>
  <polygon class="st2" points="436.3,585.7 353,584 396.7,551"/>
  <polygon class="st2" points="399.1,601.7 353,584 436.3,585.7"/>
  <polygon class="st2" points="446.9,524.8 396.7,551.1 388.6,512.9"/>
  <polygon class="st2" points="436.3,585.7 396.7,551.1 446.9,524.8"/>
  <polygon class="st2" points="396.7,551.1 332.2,542 388.6,512.9"/>
  <polygon class="st2" points="353,584 332.2,542 396.7,551.1"/>
  <polygon class="st2" points="1148.9,761.2 1200,758.5 1195.7,802.1"/>
  <polygon class="st2" points="1194.8,713.6 1200,758.5 1148.9,761.2"/>
  <polygon class="st2" points="1152.7,811.2 1195.9,801.9 1195.8,844.5"/>
  <polygon class="st2" points="1148.9,761.2 1195.9,801.9 1152.7,811.2"/>
  <polygon class="st2" points="1078.7,637 1197.9,612.3 1150.6,643.8"/>
  <polygon class="st2" points="1121.9,602.9 1197.9,612.3 1078.9,637.1"/>
  <polygon class="st2" points="1195.3,475 1121.9,602.9 1101.6,557"/>
  <polygon class="st2" points="1197.9,612.3 1121.9,602.9 1183,561.1"/>
  <polygon class="st2" points="1099.3,505.9 1101.6,557 978.4,503.9"/>
  <polygon class="st2" points="874,553.8 978.4,503.9 835.1,515.9"/>
  <polygon class="st2" points="1195.3,475 1101.6,557 1099.3,505.9"/>
  <polygon class="st2" points="1101.6,557 1029.9,551.6 978.4,503.9"/>
  <polygon class="st2" points="1121.9,602.9 1029.9,551.6 1101.6,557"/>
  <polygon class="st2" points="1194.8,713.6 1122.1,712.1 1150,674.3"/>
  <polygon class="st2" points="1148.9,761.2 1122.1,712.1 1194.8,713.6"/>
  <polygon class="st2" points="1191.7,661.9 1149.9,674.4 1150.6,643.8"/>
  <polygon class="st2" points="1194.8,713.6 1150,674.3 1191.7,661.9"/>
  <polygon class="st2" points="1149.8,674.7 1078.9,637.1 1150.6,643.8"/>
  <polygon class="st2" points="1122.1,712.1 1078.9,637.1 1149.9,674.5"/>
  <polygon class="st2" points="1061.5,717.7 1122.1,712.1 1083.5,770.5"/>
  <polygon class="st2" points="1078.9,637.1 1122.1,712.1 1061.5,717.7"/>
  <polygon class="st2" points="1050.9,806.6 1083.5,770.5 1152.7,811.2"/>
  <polygon class="st2" points="1061.5,717.7 1083.5,770.5 1050.9,806.6"/>
  <polygon class="st2" points="1083.5,770.5 1148.9,761.2 1152.7,811.2"/>
  <polygon class="st2" points="1122.1,712.1 1148.9,761.2 1083.5,770.5"/>
  <polygon class="st2" points="1126.3,900.8 1084.5,863.3 1120.6,850"/>
  <polygon class="st2" points="1070.3,919.7 1084.5,863.3 1126.3,900.8"/>
  <polygon class="st2" points="1195.8,844.5 1120.3,850 1152.7,811.2"/>
  <polygon class="st2" points="1126.3,900.8 1120.3,850 1195.8,844.5"/>
  <polygon class="st2" points="1120.5,850.2 1050.9,806.6 1152.7,811.2"/>
  <polygon class="st2" points="1084.5,863.3 1050.9,806.6 1120.6,850"/>
  <polygon class="st2" points="1014.6,825 1084.5,863.3 1022.1,882.7"/>
  <polygon class="st2" points="1050.9,806.6 1084.5,863.3 1014.6,825"/>
  <polygon class="st2" points="992.7,868.8 1022.1,882.7 1029.1,961"/>
  <polygon class="st2" points="1014.6,825 1022.1,882.7 992.7,868.8"/>
  <polygon class="st2" points="1022.1,882.7 1070.3,919.7 1029.1,961"/>
  <polygon class="st2" points="1084.5,863.3 1070.3,919.7 1022.1,882.7"/>
  <polygon class="st2" points="1070.3,919.7 1149.2,941.4 1081.5,994.4"/>
  <polygon class="st2" points="1126.3,900.8 1149.2,941.4 1070.3,919.7"/>
  <polygon class="st2" points="1029.1,961 1081.7,994.4 1034,998.8"/>
  <polygon class="st2" points="970.8,970.1 1029.1,961 1034,998.8"/>
  <polygon class="st2" points="934.4,1000 970.8,970.1 1034,998.8"/>
  <polygon class="st2" points="1070.3,919.7 1081.5,994.5 1029.1,961"/>
  <polygon class="st2" points="1149.2,941.4 1134.3,998.7 1081.7,994.3"/>
  <polygon class="st2" points="1192.8,986.4 1149.2,941.4 1193.5,886.4"/>
  <polygon class="st2" points="1134.3,998.7 1149.2,941.4 1192.8,986.4"/>
  <polygon class="st2" points="1197.9,612.3 1191.7,661.9 1150.6,643.8"/>
  <polygon class="st2" points="1183,561.1 1121.9,602.9 1195.3,475"/>
  <polygon class="st2" points="1193.4,886.5 1126.3,900.8 1195.8,844.5"/>
  <polygon class="st2" points="1149.2,941.4 1126.3,900.8 1193.4,886.5"/>
  <polygon class="st2" points="967.4,630.3 1018.5,627.6 1002.1,673.3"/>
  <polygon class="st2" points="992,597.2 1018.5,627.6 967.4,630.3"/>
  <polygon class="st2" points="971.2,680.3 1002.3,673.1 997.4,711.4"/>
  <polygon class="st2" points="967.4,630.3 1002.3,673.2 971.2,680.3"/>
  <polygon class="st2" points="1002.2,673.1 1061.5,717.7 997.4,711.4"/>
  <polygon class="st2" points="1018.5,627.6 1061.5,717.7 1002.1,673.3"/>
  <polygon class="st2" points="1078.9,637.1 1018.5,627.6 1050,596.9"/>
  <polygon class="st2" points="1061.5,717.7 1018.5,627.6 1078.9,637.1"/>
  <polygon class="st2" points="1121.9,602.9 1050,596.9 1029.9,551.6"/>
  <polygon class="st2" points="1078.9,637.1 1050,596.9 1121.9,602.9"/>
  <polygon class="st2" points="1050,596.9 992,597.2 1029.9,551.6"/>
  <polygon class="st2" points="1018.5,627.6 992,597.2 1050,596.9"/>
  <polygon class="st2" points="992,597.2 940.5,581.1 968.4,543.4"/>
  <polygon class="st2" points="967.4,630.3 940.5,581.1 992,597.2"/>
  <polygon class="st2" points="1029.9,551.6 968.4,543.4 978.4,503.9"/>
  <polygon class="st2" points="992,597.2 968.4,543.4 1029.9,551.6"/>
  <polygon class="st2" points="968.4,543.4 874,553.8 978.4,503.9"/>
  <polygon class="st2" points="940.5,581.1 874,553.8 968.4,543.4"/>
  <polygon class="st2" points="879.8,604.9 940.5,581.1 902,639.6"/>
  <polygon class="st2" points="874,553.8 940.5,581.1 879.8,604.9"/>
  <polygon class="st2" points="869.3,675.7 902,639.5 971.2,680.3"/>
  <polygon class="st2" points="879.8,604.9 902,639.5 869.3,675.7"/>
  <polygon class="st2" points="902,639.5 967.4,630.3 971.2,680.3"/>
  <polygon class="st2" points="940.5,581.1 967.4,630.3 902,639.5"/>
  <polygon class="st2" points="944.8,769.9 902.9,732.4 939.1,719.1"/>
  <polygon class="st2" points="888.8,788.7 902.9,732.4 944.8,769.9"/>
  <polygon class="st2" points="997.4,711.4 938.8,719.1 971.2,680.3"/>
  <polygon class="st2" points="944.8,769.9 938.8,719.1 997.4,711.4"/>
  <polygon class="st2" points="938.9,719.2 869.3,675.7 971.2,680.3"/>
  <polygon class="st2" points="902.9,732.4 869.3,675.7 939.1,719.1"/>
  <polygon class="st2" points="833.1,694.1 902.9,732.4 840.6,751.8"/>
  <polygon class="st2" points="869.3,675.7 902.9,732.4 833.1,694.1"/>
  <polygon class="st2" points="811.2,737.9 840.6,751.8 851.9,836.8"/>
  <polygon class="st2" points="833.1,694.1 840.6,751.8 811.2,737.9"/>
  <polygon class="st2" points="840.6,751.8 888.8,788.7 851.9,836.8"/>
  <polygon class="st2" points="902.9,732.4 888.8,788.7 840.6,751.8"/>
  <polygon class="st2" points="888.8,788.7 967.7,810.4 934,824.3"/>
  <polygon class="st2" points="944.8,769.9 967.7,810.4 888.8,788.7"/>
  <polygon class="st2" points="888.8,788.7 934,824.3 851.9,836.8"/>
  <polygon class="st2" points="934,824.3 1014.6,825 992.7,868.8"/>
  <polygon class="st2" points="967.7,810.4 1014.6,825 934.1,824.3"/>
  <polygon class="st2" points="1050.9,806.6 967.7,810.4 1011.9,755.5"/>
  <polygon class="st2" points="1014.6,825 967.7,810.4 1050.9,806.6"/>
  <polygon class="st2" points="1061.5,717.7 1011.9,755.6 997.4,711.4"/>
  <polygon class="st2" points="1050.9,806.6 1011.9,755.6 1061.5,717.7"/>
  <polygon class="st2" points="1011.9,755.6 944.8,769.9 997.4,711.4"/>
  <polygon class="st2" points="967.7,810.4 944.8,769.9 1011.9,755.6"/>
  <polygon class="st2" points="663.5,940.1 585.3,997.1 631,894.8"/>
  <polygon class="st2" points="660.4,996.9 585.3,997.1 663.5,940.1"/>
  <polygon class="st2" points="662.3,890 630.8,895 637.7,857.2"/>
  <polygon class="st2" points="663.5,940.1 630.8,895 662.3,890"/>
  <polygon class="st2" points="631,895.1 580.9,875.9 637.7,857.2"/>
  <polygon class="st2" points="585.3,997.1 580.9,875.9 631,894.8"/>
  <polygon class="st2" points="663.5,940.1 687.7,966.7 660.4,996.9"/>
  <polygon class="st2" points="687.7,966.7 748.6,989.4 660.4,996.9"/>
  <polygon class="st2" points="748.6,989.4 687.7,966.7 729.3,935.2"/>
  <polygon class="st2" points="763.7,901.4 729.3,935.3 662.3,890"/>
  <polygon class="st2" points="748.6,989.4 729.3,935.3 763.7,901.4"/>
  <polygon class="st2" points="729.3,935.3 663.5,940.1 662.3,890"/>
  <polygon class="st2" points="687.7,966.7 663.5,940.1 729.3,935.3"/>
  <polygon class="st2" points="693.2,802.2 733.1,842.5 696.3,853.4"/>
  <polygon class="st2" points="750.1,787.2 733.1,842.5 693.2,802.2"/>
  <polygon class="st2" points="637.7,857.2 696.6,853.4 662.3,890"/>
  <polygon class="st2" points="693.2,802.2 696.6,853.4 637.7,857.2"/>
  <polygon class="st2" points="696.5,853.2 763.7,901.4 662.3,890"/>
  <polygon class="st2" points="733.1,842.5 763.7,901.4 696.3,853.4"/>
  <polygon class="st2" points="800.9,885.4 733.1,842.5 796.3,827.3"/>
  <polygon class="st2" points="763.7,901.4 733.1,842.5 800.9,885.4"/>
  <polygon class="st2" points="851.9,836.8 796.3,827.3 811.2,737.9"/>
  <polygon class="st2" points="800.9,885.4 796.3,827.3 851.9,836.8"/>
  <polygon class="st2" points="796.3,827.3 750.1,787.2 811.2,737.9"/>
  <polygon class="st2" points="733.1,842.5 750.1,787.2 796.3,827.3"/>
  <polygon class="st2" points="750.1,787.2 696.7,734.1 780.1,709.8"/>
  <polygon class="st2" points="693.2,802.2 696.7,734.1 750.1,787.2"/>
  <polygon class="st2" points="811.2,737.9 780,709.8 833.1,694.1"/>
  <polygon class="st2" points="750.1,787.2 780.1,709.7 811.2,737.9"/>
  <polygon class="st2" points="779.8,710 735.1,653.8 833.1,694.1"/>
  <polygon class="st2" points="696.7,734.1 735.1,653.8 780,709.9"/>
  <polygon class="st2" points="650.1,651.7 696.7,734.1 648.5,782.6"/>
  <polygon class="st2" points="735.1,653.8 696.7,734.1 650.1,651.7"/>
  <polygon class="st2" points="580.9,875.9 648.5,782.5 637.7,857.2"/>
  <polygon class="st2" points="614.8,769.7 648.5,782.5 580.9,875.9"/>
  <polygon class="st2" points="650.1,651.7 648.5,782.5 614.8,769.7"/>
  <polygon class="st2" points="650.1,651.7 614.8,769.7 597.7,718.9"/>
  <polygon class="st2" points="650.1,651.7 597.7,718.9 610.4,610.6"/>
  <polygon class="st2" points="648.5,782.5 693.2,802.2 637.7,857.2"/>
  <polygon class="st2" points="696.7,734.1 693.2,802.2 648.5,782.5"/>
  <polygon class="st2" points="696.9,619.9 780,624.7 735.1,653.8"/>
  <polygon class="st2" points="759.8,570.2 780,624.7 696.9,619.9"/>
  <polygon class="st2" points="696.9,619.9 735.3,653.7 650.1,651.7"/>
  <polygon class="st2" points="780,624.7 833.1,694.1 735.1,653.8"/>
  <polygon class="st2" points="869.3,675.7 780,624.7 831.5,607.2"/>
  <polygon class="st2" points="833.1,694.1 780,624.7 869.3,675.7"/>
  <polygon class="st2" points="879.8,604.9 831.5,607.2 874,553.8"/>
  <polygon class="st2" points="869.3,675.7 831.5,607.2 879.8,604.9"/>
  <polygon class="st2" points="831.5,607.2 759.8,570.2 874,553.8"/>
  <polygon class="st2" points="780,624.7 759.8,570.2 831.5,607.2"/>
  <polygon class="st2" points="759.8,570.2 702.6,562.7 788.6,530.9"/>
  <polygon class="st2" points="696.9,619.9 702.6,562.7 759.8,570.2"/>
  <polygon class="st2" points="874,553.8 788.5,531 835.1,515.9"/>
  <polygon class="st2" points="759.8,570.2 788.6,530.8 874,553.8"/>
  <polygon class="st2" points="788.3,531.2 709.9,503.6 835.1,515.9"/>
  <polygon class="st2" points="702.6,562.7 709.9,503.6 788.4,531.1"/>
  <polygon class="st2" points="643.6,511.1 702.6,562.7 663.9,575.5"/>
  <polygon class="st2" points="709.9,503.6 702.6,562.7 643.6,511.1"/>
  <polygon class="st2" points="610.4,610.6 663.9,575.5 650.1,651.7"/>
  <polygon class="st2" points="643.6,511.1 663.9,575.5 610.4,610.6"/>
  <polygon class="st2" points="663.9,575.5 696.9,619.9 650.1,651.7"/>
  <polygon class="st2" points="702.6,562.7 696.9,619.9 663.9,575.5"/>
  <polygon class="st2" points="867.8,945.1 934.4,1000 870.9,996.2"/>
  <polygon class="st2" points="924.7,930 934.4,1000 867.8,945.1"/>
  <polygon class="st2" points="867.8,945.1 871.1,996.2 812.2,1000"/>
  <polygon class="st2" points="1029.1,961 970.8,970.1 992.5,868.8"/>
  <polygon class="st2" points="970.8,970.1 924.7,930 992.5,868.8"/>
  <polygon class="st2" points="934.4,1000 924.7,930 970.8,970.1"/>
  <polygon class="st2" points="924.7,930 847,903.1 934.1,824.3"/>
  <polygon class="st2" points="867.8,945.1 847,903.1 924.7,930"/>
  <polygon class="st2" points="924.7,930 934.1,824.3 992.5,868.8"/>
  <polygon class="st2" points="934.1,824.3 800.9,885.4 851.9,836.8"/>
  <polygon class="st2" points="847,903.1 800.9,885.4 934,824.3"/>
  <polygon class="st2" points="763.7,901.4 847,903.1 800,955"/>
  <polygon class="st2" points="800.9,885.4 847,903.1 763.7,901.4"/>
  <polygon class="st2" points="748.6,989.4 800,954.9 812.2,1000"/>
  <polygon class="st2" points="763.7,901.4 800,954.9 748.6,989.4"/>
  <polygon class="st2" points="800,954.9 867.8,945.1 812.2,1000"/>
  <polygon class="st2" points="847,903.1 867.8,945.1 800,954.9"/>
</g>
</svg>
